<svg xmlns="http://www.w3.org/2000/svg" width="482.582" height="512" viewBox="0 0 482.582 512"><defs><style>.a{fill:gray;}</style></defs><path class="a" d="M495.9,166.6c3.3,8.6.5,18.3-6.3,24.6l-43.3,39.4a190.6,190.6,0,0,1,0,50.8l43.3,39.4c6.8,6.3,9.6,16,6.3,24.6a253.856,253.856,0,0,1-15.7,34.3l-4.7,8.1a263.476,263.476,0,0,1-22.1,31.3,22.875,22.875,0,0,1-24.5,6.8l-55.7-17.8c-13.4,10.3-29.1,18.9-44,25.5l-12.5,57.1c-2,9-9,15.4-18.2,17.8a261.306,261.306,0,0,1-43.4,3.5,255.757,255.757,0,0,1-41.6-3.5c-9.2-2.4-16.2-8.8-18.2-17.8l-12.5-57.1a196.545,196.545,0,0,1-44-25.5L83.14,425.9a22.831,22.831,0,0,1-24.51-6.8,262.4,262.4,0,0,1-22.11-31.3l-4.68-8.1a249.414,249.414,0,0,1-15.78-34.3c-3.24-8.6-.51-18.3,6.35-24.6l43.26-39.4a194,194,0,0,1,0-50.8L22.41,191.2c-6.86-6.3-9.59-15.9-6.35-24.6a250.6,250.6,0,0,1,15.78-34.3l4.67-8.1A259.056,259.056,0,0,1,58.63,92.95a22.713,22.713,0,0,1,24.51-6.81L138.8,103.9a192.314,192.314,0,0,1,44-25.47l12.5-57.1A22.687,22.687,0,0,1,213.5,3.51a259.056,259.056,0,0,1,85,0,22.687,22.687,0,0,1,18.2,17.82l12.5,57.1c14.9,6.53,30.6,15.13,44,25.47l55.7-17.76a22.756,22.756,0,0,1,24.5,6.81,258.9,258.9,0,0,1,22.1,31.25l4.7,8.1a253.853,253.853,0,0,1,15.7,34.3ZM256,336c44.2,0,80-35.8,80-80.9,0-43.3-35.8-80-80-80s-80,36.7-80,80C176,300.2,211.8,336,256,336Z" transform="translate(-14.702)"/></svg>